<svg width="29" height="302" viewBox="0 0 29 302" fill="none" xmlns="http://www.w3.org/2000/svg">
<rect width="29" height="3" rx="1.5" fill="#C4C4C4"/>
<rect y="74.6875" width="29" height="3.24731" rx="1.62366" fill="#C4C4C4"/>
<rect x="14.5" y="9.74219" width="14.5" height="1.62366" rx="0.811828" fill="#C4C4C4"/>
<rect x="14.5" y="17.8613" width="14.5" height="1.62366" rx="0.811828" fill="#C4C4C4"/>
<rect x="14.5" y="25.9785" width="14.5" height="1.62366" rx="0.811828" fill="#C4C4C4"/>
<rect x="14.5" y="34.0977" width="14.5" height="1.62366" rx="0.811828" fill="#C4C4C4"/>
<rect x="14.5" y="42.2148" width="14.5" height="1.62366" rx="0.811828" fill="#C4C4C4"/>
<rect x="14.5" y="50.334" width="14.5" height="1.62366" rx="0.811828" fill="#C4C4C4"/>
<rect x="14.5" y="58.4512" width="14.5" height="1.62366" rx="0.811828" fill="#C4C4C4"/>
<rect x="14.5" y="66.5703" width="14.5" height="1.62366" rx="0.811828" fill="#C4C4C4"/>
<rect y="149.375" width="29" height="3.24731" rx="1.62366" fill="#C4C4C4"/>
<rect x="14.5" y="84.4297" width="14.5" height="1.62366" rx="0.811828" fill="#C4C4C4"/>
<rect x="14.5" y="92.5488" width="14.5" height="1.62366" rx="0.811828" fill="#C4C4C4"/>
<rect x="14.5" y="100.666" width="14.5" height="1.62366" rx="0.811828" fill="#C4C4C4"/>
<rect x="14.5" y="108.785" width="14.5" height="1.62366" rx="0.811828" fill="#C4C4C4"/>
<rect x="14.5" y="116.902" width="14.5" height="1.62366" rx="0.811828" fill="#C4C4C4"/>
<rect x="14.5" y="125.021" width="14.5" height="1.62366" rx="0.811828" fill="#C4C4C4"/>
<rect x="14.5" y="133.139" width="14.5" height="1.62366" rx="0.811828" fill="#C4C4C4"/>
<rect x="14.5" y="141.258" width="14.5" height="1.62366" rx="0.811828" fill="#C4C4C4"/>
<rect y="224.064" width="29" height="3.24731" rx="1.62366" fill="#C4C4C4"/>
<rect x="14.5" y="159.119" width="14.5" height="1.62366" rx="0.811828" fill="#C4C4C4"/>
<rect x="14.5" y="167.238" width="14.5" height="1.62366" rx="0.811828" fill="#C4C4C4"/>
<rect x="14.5" y="175.355" width="14.5" height="1.62366" rx="0.811828" fill="#C4C4C4"/>
<rect x="14.5" y="183.475" width="14.5" height="1.62366" rx="0.811828" fill="#C4C4C4"/>
<rect x="14.5" y="191.592" width="14.5" height="1.62366" rx="0.811828" fill="#C4C4C4"/>
<rect x="14.5" y="199.711" width="14.5" height="1.62366" rx="0.811828" fill="#C4C4C4"/>
<rect x="14.5" y="207.828" width="14.5" height="1.62366" rx="0.811828" fill="#C4C4C4"/>
<rect x="14.5" y="215.947" width="14.5" height="1.62366" rx="0.811828" fill="#C4C4C4"/>
<rect y="298.752" width="29" height="3.24731" rx="1.62366" fill="#C4C4C4"/>
<rect x="14.5" y="233.807" width="14.5" height="1.62366" rx="0.811828" fill="#C4C4C4"/>
<rect x="14.5" y="241.926" width="14.5" height="1.62366" rx="0.811828" fill="#C4C4C4"/>
<rect x="14.5" y="250.043" width="14.5" height="1.62366" rx="0.811828" fill="#C4C4C4"/>
<rect x="14.5" y="258.162" width="14.5" height="1.62366" rx="0.811828" fill="#C4C4C4"/>
<rect x="14.5" y="266.279" width="14.5" height="1.62366" rx="0.811828" fill="#C4C4C4"/>
<rect x="14.5" y="274.398" width="14.5" height="1.62366" rx="0.811828" fill="#C4C4C4"/>
<rect x="14.5" y="282.516" width="14.5" height="1.62366" rx="0.811828" fill="#C4C4C4"/>
<rect x="14.5" y="290.635" width="14.5" height="1.62366" rx="0.811828" fill="#C4C4C4"/>
</svg>
