<svg width="29" height="302" viewBox="0 0 29 302" fill="none" xmlns="http://www.w3.org/2000/svg">
<rect x="29" y="302" width="29" height="3" rx="1.5" transform="rotate(-180 29 302)" fill="#C4C4C4"/>
<rect x="29" y="227.312" width="29" height="3.24731" rx="1.62366" transform="rotate(-180 29 227.312)" fill="#C4C4C4"/>
<rect x="14.5" y="292.258" width="14.5" height="1.62366" rx="0.811828" transform="rotate(-180 14.5 292.258)" fill="#C4C4C4"/>
<rect x="14.5" y="284.139" width="14.5" height="1.62366" rx="0.811828" transform="rotate(-180 14.5 284.139)" fill="#C4C4C4"/>
<rect x="14.5" y="276.021" width="14.5" height="1.62366" rx="0.811828" transform="rotate(-180 14.5 276.021)" fill="#C4C4C4"/>
<rect x="14.5" y="267.902" width="14.5" height="1.62366" rx="0.811828" transform="rotate(-180 14.5 267.902)" fill="#C4C4C4"/>
<rect x="14.5" y="259.785" width="14.5" height="1.62366" rx="0.811828" transform="rotate(-180 14.5 259.785)" fill="#C4C4C4"/>
<rect x="14.5" y="251.666" width="14.5" height="1.62366" rx="0.811828" transform="rotate(-180 14.5 251.666)" fill="#C4C4C4"/>
<rect x="14.5" y="243.549" width="14.5" height="1.62366" rx="0.811828" transform="rotate(-180 14.5 243.549)" fill="#C4C4C4"/>
<rect x="14.5" y="235.43" width="14.5" height="1.62366" rx="0.811828" transform="rotate(-180 14.5 235.43)" fill="#C4C4C4"/>
<rect x="29" y="152.625" width="29" height="3.24731" rx="1.62366" transform="rotate(-180 29 152.625)" fill="#C4C4C4"/>
<rect x="14.5" y="217.57" width="14.5" height="1.62366" rx="0.811828" transform="rotate(-180 14.5 217.57)" fill="#C4C4C4"/>
<rect x="14.5" y="209.451" width="14.5" height="1.62366" rx="0.811828" transform="rotate(-180 14.5 209.451)" fill="#C4C4C4"/>
<rect x="14.5" y="201.334" width="14.5" height="1.62366" rx="0.811828" transform="rotate(-180 14.5 201.334)" fill="#C4C4C4"/>
<rect x="14.5" y="193.215" width="14.5" height="1.62366" rx="0.811828" transform="rotate(-180 14.5 193.215)" fill="#C4C4C4"/>
<rect x="14.5" y="185.098" width="14.5" height="1.62366" rx="0.811828" transform="rotate(-180 14.5 185.098)" fill="#C4C4C4"/>
<rect x="14.5" y="176.979" width="14.5" height="1.62366" rx="0.811828" transform="rotate(-180 14.5 176.979)" fill="#C4C4C4"/>
<rect x="14.5" y="168.861" width="14.5" height="1.62366" rx="0.811828" transform="rotate(-180 14.5 168.861)" fill="#C4C4C4"/>
<rect x="14.5" y="160.742" width="14.5" height="1.62366" rx="0.811828" transform="rotate(-180 14.5 160.742)" fill="#C4C4C4"/>
<rect x="29" y="77.9355" width="29" height="3.24731" rx="1.62366" transform="rotate(-180 29 77.9355)" fill="#C4C4C4"/>
<rect x="14.5" y="142.881" width="14.5" height="1.62366" rx="0.811828" transform="rotate(-180 14.5 142.881)" fill="#C4C4C4"/>
<rect x="14.5" y="134.762" width="14.5" height="1.62366" rx="0.811828" transform="rotate(-180 14.5 134.762)" fill="#C4C4C4"/>
<rect x="14.5" y="126.645" width="14.5" height="1.62366" rx="0.811828" transform="rotate(-180 14.5 126.645)" fill="#C4C4C4"/>
<rect x="14.5" y="118.525" width="14.5" height="1.62366" rx="0.811828" transform="rotate(-180 14.5 118.525)" fill="#C4C4C4"/>
<rect x="14.5" y="110.408" width="14.5" height="1.62366" rx="0.811828" transform="rotate(-180 14.5 110.408)" fill="#C4C4C4"/>
<rect x="14.5" y="102.289" width="14.5" height="1.62366" rx="0.811828" transform="rotate(-180 14.5 102.289)" fill="#C4C4C4"/>
<rect x="14.5" y="94.1719" width="14.5" height="1.62366" rx="0.811828" transform="rotate(-180 14.5 94.1719)" fill="#C4C4C4"/>
<rect x="14.5" y="86.0527" width="14.5" height="1.62366" rx="0.811828" transform="rotate(-180 14.5 86.0527)" fill="#C4C4C4"/>
<rect x="29" y="3.24805" width="29" height="3.24731" rx="1.62366" transform="rotate(-180 29 3.24805)" fill="#C4C4C4"/>
<rect x="14.5" y="68.1934" width="14.5" height="1.62366" rx="0.811828" transform="rotate(-180 14.5 68.1934)" fill="#C4C4C4"/>
<rect x="14.5" y="60.0742" width="14.5" height="1.62366" rx="0.811828" transform="rotate(-180 14.5 60.0742)" fill="#C4C4C4"/>
<rect x="14.5" y="51.957" width="14.5" height="1.62366" rx="0.811828" transform="rotate(-180 14.5 51.957)" fill="#C4C4C4"/>
<rect x="14.5" y="43.8379" width="14.5" height="1.62366" rx="0.811828" transform="rotate(-180 14.5 43.8379)" fill="#C4C4C4"/>
<rect x="14.5" y="35.7207" width="14.5" height="1.62366" rx="0.811828" transform="rotate(-180 14.5 35.7207)" fill="#C4C4C4"/>
<rect x="14.5" y="27.6016" width="14.5" height="1.62366" rx="0.811828" transform="rotate(-180 14.5 27.6016)" fill="#C4C4C4"/>
<rect x="14.5" y="19.4844" width="14.5" height="1.62366" rx="0.811828" transform="rotate(-180 14.5 19.4844)" fill="#C4C4C4"/>
<rect x="14.5" y="11.3652" width="14.5" height="1.62366" rx="0.811828" transform="rotate(-180 14.5 11.3652)" fill="#C4C4C4"/>
</svg>
